<svg width="1266" height="69" viewBox="0 0 1266 69" fill="none" xmlns="http://www.w3.org/2000/svg">
<path d="M89.3565 2.9016C89.7 23.2043 90.0436 43.4557 90.3871 63.6559L89.3565 2.9016ZM142.948 2.69664C143.291 22.1111 143.635 41.4668 143.978 60.7637L142.948 2.69664ZM116.152 2.80481C116.496 22.6596 116.839 42.4613 117.183 62.2098L116.152 2.80481ZM10 3.20335C10.3435 24.8079 10.6871 46.3897 11.0306 67.9488L10 3.20335ZM63.5914 2.99839C63.9349 23.73 64.2785 44.416 64.622 65.0565L63.5914 2.99839ZM36.7957 3.09517C37.1392 24.2708 37.4828 45.4086 37.8263 66.5083L36.7957 3.09517ZM248.069 2.25824C248.413 19.9571 248.757 37.5744 249.1 55.1101L248.069 2.25824ZM301.661 2.03051C302.004 18.864 302.348 35.6007 302.691 52.2407L301.661 2.03051ZM274.865 2.14437C275.209 19.4106 275.552 36.5876 275.896 53.6754L274.865 2.14437ZM168.713 2.58846C169.057 21.5817 169.4 40.5103 169.744 59.3745L168.713 2.58846ZM222.304 2.36642C222.648 20.4828 222.991 38.5252 223.335 56.4936L222.304 2.36642ZM195.509 2.48029C195.852 21.0332 196.196 39.5178 196.539 57.9341L195.509 2.48029ZM406.782 1.59781C407.126 16.7499 407.47 31.7558 407.813 46.6156L406.782 1.59781ZM460.374 1.39285C460.717 15.7061 461.061 29.8257 461.404 43.7518L460.374 1.39285ZM433.578 1.49533C433.922 16.2223 434.265 30.7841 434.609 45.1808L433.578 1.49533ZM327.426 1.92803C327.77 18.344 328.113 34.6537 328.457 50.8572L327.426 1.92803ZM381.017 1.70598C381.361 17.2642 381.704 32.6933 382.048 47.9934L381.017 1.70598ZM354.222 1.81416C354.565 17.8012 354.909 33.6726 355.252 49.4281L354.222 1.81416ZM565.495 1.07401C565.839 13.8842 566.182 26.2484 566.526 38.1666L565.495 1.07401ZM619.087 1C619.43 13.3661 619.774 24.8592 620.117 35.4793L619.087 1ZM592.291 1.02847C592.635 13.5578 592.978 25.4703 593.322 36.766L592.291 1.02847ZM486.139 1.30175C486.482 15.2202 486.826 28.9129 487.17 42.3797L486.139 1.30175ZM539.73 1.13664C540.074 14.277 540.417 27.0739 540.761 39.5273L539.73 1.13664ZM512.935 1.21635C513.278 14.7325 513.622 27.9773 513.965 40.9506L512.935 1.21635ZM725.239 1.13095C725.583 14.2751 725.926 27.0929 726.27 39.5842L725.239 1.13095ZM778.83 1.30175C779.174 15.2202 779.517 28.93 779.861 42.4309L778.83 1.30175ZM752.035 1.21066C752.378 14.7306 752.722 27.9962 753.065 41.0076L752.035 1.21066ZM645.883 1C646.226 13.3661 646.57 24.8743 646.913 35.5248L645.883 1ZM699.474 1.06832C699.817 13.8823 700.161 26.2654 700.505 38.2178L699.474 1.06832ZM672.678 1.02277C673.022 13.5559 673.365 25.4892 673.709 36.8229L672.678 1.02277ZM883.952 1.70029C884.296 17.2623 884.639 32.7104 884.983 48.0446L883.952 1.70029ZM937.543 1.92233C937.887 18.3421 938.23 34.6727 938.574 50.9141L937.543 1.92233ZM910.748 1.80846C911.091 17.7993 911.435 33.6896 911.778 49.4794L910.748 1.80846ZM804.596 1.39285C804.939 15.7061 805.283 29.8447 805.626 43.8087L804.596 1.39285ZM858.187 1.59781C858.53 16.7499 858.874 31.7748 859.218 46.6725L858.187 1.59781ZM831.391 1.48963C831.735 16.2204 832.078 30.8031 832.422 45.2378L831.391 1.48963ZM1042.66 2.36072C1043.01 20.4809 1043.35 38.5442 1043.7 56.5506L1042.66 2.36072ZM1096.26 2.58846C1096.6 21.5817 1096.94 40.5293 1097.29 59.4314L1096.26 2.58846ZM1069.46 2.47459C1069.8 21.0313 1070.15 39.5368 1070.49 57.991L1069.46 2.47459ZM963.308 2.03051C963.652 18.864 963.996 35.6178 964.339 52.2919L963.308 2.03051ZM1016.9 2.25255C1017.24 19.9552 1017.59 37.5934 1017.93 55.1671L1016.9 2.25255ZM990.104 2.14437C990.448 19.4106 990.791 36.6066 991.135 53.7323L990.104 2.14437ZM1201.38 2.99269C1201.72 23.7281 1202.07 44.4331 1202.41 65.1077L1201.38 2.99269ZM1254.97 3.19765C1255.31 24.806 1255.66 46.4068 1256 68L1254.97 3.19765ZM1228.17 3.08948C1228.52 24.2689 1228.86 45.4275 1229.2 66.5653L1228.17 3.08948ZM1122.02 2.69094C1122.36 22.1093 1122.71 41.4839 1123.05 60.8149L1122.02 2.69094ZM1175.61 2.8959C1175.96 23.2024 1176.3 43.4747 1176.64 63.7129L1175.61 2.8959ZM1148.82 2.79912C1149.16 22.6577 1149.5 42.4784 1149.85 62.2611L1148.82 2.79912Z" fill="black"/>
<path d="M89.3565 2.9016C89.7 23.2043 90.0436 43.4557 90.3871 63.6559M142.948 2.69663C143.291 22.1111 143.635 41.4668 143.978 60.7637M116.152 2.80481C116.496 22.6596 116.839 42.4613 117.183 62.2098M10 3.20335C10.3435 24.8079 10.6871 46.3897 11.0306 67.9488M63.5914 2.99839C63.9349 23.73 64.2785 44.416 64.622 65.0565M36.7957 3.09517C37.1392 24.2708 37.4828 45.4086 37.8263 66.5083M248.069 2.25824C248.413 19.9571 248.757 37.5744 249.1 55.1101M301.661 2.03051C302.004 18.864 302.348 35.6007 302.691 52.2407M274.865 2.14437C275.209 19.4106 275.552 36.5876 275.896 53.6754M168.713 2.58846C169.057 21.5817 169.4 40.5103 169.744 59.3745M222.304 2.36642C222.648 20.4828 222.991 38.5252 223.335 56.4936M195.509 2.48029C195.852 21.0332 196.196 39.5178 196.539 57.9341M406.782 1.59781C407.126 16.7499 407.47 31.7558 407.813 46.6156M460.374 1.39285C460.717 15.7061 461.061 29.8257 461.404 43.7518M433.578 1.49533C433.922 16.2223 434.265 30.7841 434.609 45.1808M327.426 1.92803C327.769 18.344 328.113 34.6537 328.457 50.8572M381.017 1.70598C381.361 17.2642 381.704 32.6933 382.048 47.9934M354.222 1.81416C354.565 17.8012 354.909 33.6726 355.252 49.4281M565.495 1.07401C565.839 13.8842 566.182 26.2484 566.526 38.1666M619.087 1C619.43 13.3661 619.774 24.8592 620.117 35.4793M592.291 1.02847C592.635 13.5578 592.978 25.4703 593.322 36.766M486.139 1.30175C486.482 15.2202 486.826 28.9129 487.17 42.3797M539.73 1.13664C540.074 14.277 540.417 27.0739 540.761 39.5273M512.935 1.21635C513.278 14.7325 513.622 27.9773 513.965 40.9506M725.239 1.13095C725.583 14.2751 725.926 27.0929 726.27 39.5842M778.83 1.30175C779.174 15.2202 779.517 28.93 779.861 42.4309M752.035 1.21066C752.378 14.7306 752.722 27.9962 753.065 41.0076M645.883 1C646.226 13.3661 646.57 24.8743 646.913 35.5248M699.474 1.06832C699.817 13.8823 700.161 26.2654 700.505 38.2178M672.678 1.02277C673.022 13.5559 673.365 25.4892 673.709 36.8229M883.952 1.70029C884.296 17.2623 884.639 32.7104 884.983 48.0446M937.543 1.92233C937.887 18.3421 938.23 34.6727 938.574 50.9141M910.748 1.80846C911.091 17.7993 911.435 33.6896 911.778 49.4794M804.596 1.39285C804.939 15.7061 805.283 29.8447 805.626 43.8087M858.187 1.59781C858.53 16.7499 858.874 31.7748 859.218 46.6725M831.391 1.48963C831.735 16.2204 832.078 30.8031 832.422 45.2378M1042.66 2.36072C1043.01 20.4809 1043.35 38.5442 1043.7 56.5506M1096.26 2.58846C1096.6 21.5817 1096.94 40.5293 1097.29 59.4314M1069.46 2.47459C1069.8 21.0313 1070.15 39.5368 1070.49 57.991M963.308 2.03051C963.652 18.864 963.996 35.6178 964.339 52.2919M1016.9 2.25255C1017.24 19.9552 1017.59 37.5934 1017.93 55.1671M990.104 2.14437C990.448 19.4106 990.791 36.6066 991.135 53.7323M1201.38 2.99269C1201.72 23.7281 1202.07 44.4331 1202.41 65.1078M1254.97 3.19765C1255.31 24.806 1255.66 46.4068 1256 68M1228.17 3.08948C1228.52 24.269 1228.86 45.4275 1229.2 66.5653M1122.02 2.69094C1122.36 22.1093 1122.71 41.4839 1123.05 60.8149M1175.61 2.8959C1175.96 23.2024 1176.3 43.4747 1176.64 63.7129M1148.82 2.79912C1149.16 22.6577 1149.5 42.4784 1149.85 62.2611" stroke="black" stroke-width="20"/>
</svg>
